<?xml version="1.0" encoding="UTF-8" standalone="no"?>
<!-- Created with Inkscape (http://www.inkscape.org/) -->

<svg
   xmlns:dc="http://purl.org/dc/elements/1.1/"
   xmlns:cc="http://creativecommons.org/ns#"
   xmlns:rdf="http://www.w3.org/1999/02/22-rdf-syntax-ns#"
   xmlns:svg="http://www.w3.org/2000/svg"
   xmlns="http://www.w3.org/2000/svg"
   xmlns:sodipodi="http://sodipodi.sourceforge.net/DTD/sodipodi-0.dtd"
   xmlns:inkscape="http://www.inkscape.org/namespaces/inkscape"
   width="112.88889mm"
   height="65.688957mm"
   viewBox="0 0 399.99999 232.75615"
   id="svg4387"
   version="1.1"
   inkscape:version="0.91 r13725"
   sodipodi:docname="logo.svg">
  <defs
     id="defs4389" />
  <sodipodi:namedview
     id="base"
     pagecolor="#ffffff"
     bordercolor="#666666"
     borderopacity="1.0"
     inkscape:pageopacity="0.0"
     inkscape:pageshadow="2"
     inkscape:zoom="0.49497475"
     inkscape:cx="128.2026"
     inkscape:cy="-103.46753"
     inkscape:document-units="px"
     inkscape:current-layer="layer1"
     showgrid="false"
     fit-margin-top="0"
     fit-margin-left="0"
     fit-margin-right="0"
     fit-margin-bottom="0"
     inkscape:window-width="1366"
     inkscape:window-height="717"
     inkscape:window-x="0"
     inkscape:window-y="28"
     inkscape:window-maximized="1" />
  <metadata
     id="metadata4392">
    <rdf:RDF>
      <cc:Work
         rdf:about="">
        <dc:format>image/svg+xml</dc:format>
        <dc:type
           rdf:resource="http://purl.org/dc/dcmitype/StillImage" />
        <dc:title></dc:title>
      </cc:Work>
    </rdf:RDF>
  </metadata>
  <g
     inkscape:label="Layer 1"
     inkscape:groupmode="layer"
     id="layer1"
     transform="translate(292.75268,-149.44394)">
    <path
       inkscape:connector-curvature="0"
       id="path4327"
       style="font-style:normal;font-variant:normal;font-weight:normal;font-stretch:normal;font-size:medium;line-height:125%;font-family:Sriracha;-inkscape-font-specification:Sriracha;text-align:center;letter-spacing:0px;word-spacing:0px;text-anchor:middle;fill:#000000;fill-opacity:1;stroke:none;stroke-width:1px;stroke-linecap:butt;stroke-linejoin:miter;stroke-opacity:1"
       d="m -251.7877,196.08984 q -0.77883,-1.52515 -4.40909,-2.14851 -3.54674,-0.74127 -8.9845,0.1879 -5.94126,1.0152 -8.69653,4.9061 -2.75523,3.8909 -1.89489,8.92586 0.53341,3.12168 3.04131,4.45502 2.59137,1.21543 7.66837,2.4207 l 3.88327,0.89104 3.26187,0.89359 q 5.85073,1.48762 9.31654,2.96819 3.54933,1.36267 6.34974,4.40789 2.80042,3.04523 3.71238,8.38229 0.98078,5.73986 -2.12313,10.62309 -3.02037,4.76531 -9.4059,8.03286 -6.36828,3.36823 -15.33054,4.89964 -6.64615,1.13564 -12.84802,0.019 -6.08402,-1.03319 -10.04121,-3.56984 -3.85646,-2.55386 -4.37266,-5.57484 -0.499,-2.92028 1.70876,-5.16303 2.19056,-2.34346 6.70227,-3.83986 1.00247,2.83425 4.31851,4.65133 3.31606,1.81708 7.3835,2.57302 4.15096,0.63803 7.07126,0.13902 5.33706,-0.91195 9.10439,-3.73212 3.868,-2.83736 3.23135,-6.56323 -0.53341,-3.12168 -3.8985,-4.61947 -3.28164,-1.61568 -9.63586,-3.01726 l -5.75003,-1.50483 q -7.09604,-2.10394 -11.61088,-5.47805 -4.51487,-3.37411 -5.65052,-10.02026 -1.2561,-7.35104 2.09827,-12.58799 3.33718,-5.33765 8.83358,-8.34962 5.59712,-3.02919 11.23628,-3.99277 8.96223,-1.5314 15.09787,-0.19611 6.23629,1.3181 9.45673,4.39519 3.22042,3.0771 3.85707,6.80297 0.36134,2.11468 -0.23017,5.32494 -0.49079,3.19305 -2.22692,5.76977 -1.63544,2.55952 -4.55569,3.05851 -5.03497,0.86034 -5.92972,-4.37602 -0.0739,-1.6456 0.0115,-5.39122 0.0682,-3.84632 0.2499,-4.60284 z" />
    <path
       inkscape:connector-curvature="0"
       id="path4329"
       style="font-style:normal;font-variant:normal;font-weight:normal;font-stretch:normal;font-size:medium;line-height:125%;font-family:Sriracha;-inkscape-font-specification:Sriracha;text-align:center;letter-spacing:0px;word-spacing:0px;text-anchor:middle;fill:#000000;fill-opacity:1;stroke:none;stroke-width:1px;stroke-linecap:butt;stroke-linejoin:miter;stroke-opacity:1"
       d="m -198.94281,237.32521 q -2.87316,3.8074 -5.83741,5.8685 -2.94706,2.16181 -6.97503,2.85008 -6.64616,1.13565 -10.97683,-2.37357 -4.22995,-3.52644 -5.40002,-10.37399 -0.34413,-2.01398 -0.1529,-4.534 l 2.25588,-27.43536 q 0.22565,-2.31863 1.56407,-3.58372 1.42191,-1.383 4.94639,-1.98524 5.23636,-0.89475 5.73536,2.02552 0.20648,1.2084 -0.051,3.94702 l -2.13545,28.14026 q -0.0956,1.26001 0.11086,2.4684 0.36134,2.11469 1.69272,3.2345 1.33138,1.11982 3.74817,0.70686 3.12167,-0.53341 6.43715,-2.96545 3.31543,-2.43203 5.38553,-5.48038 l 0.55395,-8.28217 q 0.53674,-8.38287 1.45399,-18.17807 0.41945,-4.21725 1.70114,-7.02724 1.36521,-2.9279 5.19179,-3.58176 5.33706,-0.91196 5.88767,2.31042 0.086,0.50349 -0.0784,1.36071 -0.081,0.73931 -0.0956,1.26001 l -0.96572,14.36362 q -1.48531,22.84719 -2.04686,29.26515 -0.8975,10.5173 -3.23982,16.82499 -2.34229,6.30768 -6.94708,9.6855 -4.50407,3.36061 -12.25794,4.68554 -4.93426,0.84313 -8.39753,-0.016 -3.36258,-0.87638 -5.2172,-2.63226 -1.75393,-1.77309 -2.04644,-3.48498 -0.84313,-4.93427 4.59463,-5.86343 1.51049,-0.2581 2.52002,0.19123 1.11023,0.43213 2.3065,1.36775 1.75138,1.15169 3.08022,1.6501 1.42954,0.48121 3.64492,0.10266 1.71192,-0.29252 3.58568,-2.06365 1.87379,-1.77113 3.37157,-5.13624 1.49781,-3.36512 2.03257,-8.12027 l 1.02049,-9.191 z" />
    <path
       style="fill:#000000;fill-opacity:1;stroke:none"
       d="m -175.71371,238.9045 c 0,0 -0.46872,10.89743 3.66953,13.33072 5.03539,-2.43638 8.98668,-13.05827 8.98668,-13.05827 0,0 -4.35011,1.40651 -6.59112,1.34001 -2.09103,-0.062 -6.0651,-1.61251 -6.0651,-1.61251 z"
       id="path4280"
       inkscape:connector-curvature="0"
       sodipodi:nodetypes="cccac" />
    <path
       style="fill:#000000;fill-opacity:1;fill-rule:evenodd;stroke:none"
       d="m -171.44961,259.53581 c 0,0 1.34491,-0.23958 3.68106,-0.007 1.16807,0.11642 2.58004,0.37022 4.08479,0.91859 1.50475,0.54837 3.10568,1.39351 4.50364,2.69335 1.44651,1.31807 2.66313,3.13872 3.3977,5.43798 0.73439,2.2993 0.98523,5.07836 0.51675,8.12385 -0.38676,2.51323 -1.25124,5.20093 -2.57847,7.9508 -1.32719,2.74989 -3.1168,5.56121 -5.28955,8.28495 -3.90462,4.88408 -8.91204,9.42376 -14.46447,13.60741 -5.55244,4.18365 -11.63302,8.01483 -17.5181,11.61694 -4.80397,2.99558 -9.57333,5.94267 -13.97247,8.95429 -4.39942,3.01125 -8.4234,6.09009 -11.85455,9.32672 -0.47532,0.44807 -0.94543,0.90525 -1.40957,1.37147 -3.5014,3.48872 -6.74487,7.44274 -8.83376,11.65857 -1.93866,3.91869 -3.03047,8.14087 -2.5021,11.82117 0.35211,2.78642 1.60746,5.3946 3.52883,7.50939 0,0 0,0 0,0 1.91829,2.11467 4.57682,3.7436 7.61356,4.80074 0,0 2e-5,-3e-5 2e-5,-3e-5 6.25378,2.23014 14.33752,1.73735 21.77864,-0.26852 0,0 0,0 0,0 4.43771,-1.21471 8.69862,-2.98591 12.55161,-5.0593 3.85293,-2.07343 7.29661,-4.44761 10.22581,-6.88193 3.01838,-2.50586 5.50647,-5.08171 7.50341,-7.4719 1.99696,-2.39015 3.50609,-4.59536 4.63405,-6.44101 1.12793,-1.84562 1.87963,-3.33347 2.36567,-4.35035 0.48603,-1.01693 0.7118,-1.56443 0.7118,-1.56443 0,0 -0.0978,0.50634 -0.36629,1.49543 -0.2685,0.9891 -0.71054,2.46451 -1.50367,4.39175 -0.79313,1.92718 -1.94102,4.31084 -3.67563,7.04354 -1.73462,2.73269 -4.06028,5.81908 -7.203,9.00795 -2.79212,2.83245 -6.22999,5.7366 -10.34046,8.43214 -4.11038,2.69563 -8.89674,5.18265 -14.23322,7.06586 -4.14937,1.47414 -8.6604,2.56529 -13.2967,2.99579 -4.63632,0.43048 -9.39882,0.19963 -13.91983,-1.01948 0,0 -3e-5,-1e-5 -3e-5,-1e-5 -4.06228,-1.11665 -7.82854,-3.07455 -10.7897,-5.96358 -2.81148,-2.74626 -4.80511,-6.33775 -5.50156,-10.57785 -0.79974,-5.23247 0.38615,-11.09216 3.26209,-16.7008 2.73205,-5.33327 6.7566,-10.37448 11.52361,-14.79682 0.80848,-0.74487 1.63249,-1.47292 2.47042,-2.18518 4.70052,-3.99555 9.57018,-7.32362 14.34561,-10.27418 4.77546,-2.95057 9.45747,-5.52278 13.865,-7.9227 2e-5,-2e-5 2e-5,-2e-5 2e-5,-2e-5 6.63157,-3.70227 12.83275,-7.15664 18.15027,-10.71053 5.31734,-3.5541 9.75779,-7.20203 13.19587,-11.04312 0,0 0,0 0,0 2.18171,-2.41001 3.99263,-4.85833 5.37301,-7.22536 1.38044,-2.36699 2.33177,-4.6535 2.86536,-6.78893 0.69911,-2.79316 0.74114,-5.36782 0.33203,-7.50977 -0.40908,-2.14193 -1.26718,-3.858 -2.35637,-5.14469 -1.15929,-1.42605 -2.58764,-2.39274 -3.93525,-3.05326 -1.34762,-0.66055 -2.62217,-1.01843 -3.67036,-1.22767 -1.04824,-0.20924 -1.87547,-0.27221 -2.42906,-0.29966 -0.55363,-0.0274 -0.83642,-0.0206 -0.83642,-0.0206 z"
       id="path4282"
       inkscape:connector-curvature="0" />
    <path
       inkscape:connector-curvature="0"
       id="path4331"
       style="font-style:normal;font-variant:normal;font-weight:normal;font-stretch:normal;font-size:medium;line-height:125%;font-family:Sriracha;-inkscape-font-specification:Sriracha;text-align:center;letter-spacing:0px;word-spacing:0px;text-anchor:middle;fill:#000000;fill-opacity:1;stroke:none;stroke-width:1px;stroke-linecap:butt;stroke-linejoin:miter;stroke-opacity:1"
       d="m -159.44388,182.48721 q -2.93618,45.89578 -3.66728,51.92816 -0.0982,0.63861 -1.85658,1.87183 -1.64052,1.31671 -2.34542,1.43716 -2.61815,0.44737 -4.95655,-0.50037 -2.32117,-0.84705 -3.05595,-3.93432 0.0147,-0.5207 0.0217,-2.90561 0.007,-2.38491 0.24735,-5.22423 1.36601,-15.05386 2.83917,-36.75894 l 1.51265,-20.26088 q -0.20394,-0.58699 -0.39321,-1.69468 -0.67107,-3.92728 1.06253,-7.1254 1.83431,-3.21534 4.75459,-3.71434 1.91329,-0.32693 3.88325,0.89105 1.95281,1.11727 3.45877,3.86548 l -1.505,22.12509 z" />
    <path
       inkscape:connector-curvature="0"
       id="path4333"
       style="font-style:normal;font-variant:normal;font-weight:normal;font-stretch:normal;font-size:medium;line-height:125%;font-family:Sriracha;-inkscape-font-specification:Sriracha;text-align:center;letter-spacing:0px;word-spacing:0px;text-anchor:middle;fill:#000000;fill-opacity:1;stroke:none;stroke-width:1px;stroke-linecap:butt;stroke-linejoin:miter;stroke-opacity:1"
       d="m -116.77668,205.25197 q -1.43031,11.64474 -5.80127,18.81727 -4.27024,7.15531 -9.9094,8.11889 -10.37203,1.7723 -13.77897,-18.16615 -1.23889,-7.25035 -1.57852,-12.27065 -0.33961,-5.0203 -0.0948,-10.86594 -0.008,-1.8642 1.39711,-3.34791 1.50538,-1.5009 4.22429,-1.96549 5.23633,-0.89475 6.12857,3.72021 0.086,0.5035 0.0643,3.40911 -0.0262,5.91192 0.0432,10.56384 0.17011,4.63471 0.96162,9.26687 1.61744,9.46573 4.53769,8.96674 2.71891,-0.46459 4.40536,-6.97112 1.76996,-6.62445 2.53998,-15.46173 0.77001,-8.83729 0.69046,-15.97482 -0.0223,-1.3435 1.51753,-2.64301 1.64052,-1.31671 2.94961,-1.5404 2.92025,-0.499 5.05723,0.48317 2.22049,0.86425 2.61624,3.18033 0.10325,0.6042 0.0669,4.03051 -0.20671,15.16668 1.11821,22.92052 0.61944,3.62518 2.02219,5.76919 1.48627,2.02611 3.19813,1.7336 3.3231,-0.56783 4.854689,-7.98066 1.632312,-7.43004 1.675166,-17.49039 0.04281,-10.06033 -1.0979,-17.94929 -0.122989,-1.3263 0.982136,-2.13697 1.188643,-0.92859 3.001255,-1.23831 2.215358,-0.37855 4.467722,0.0657 2.235107,0.34356 2.490692,1.23264 5.084,52.19467 -15.76075,55.75647 -5.13568,0.87755 -7.87233,-3.00768 -2.73669,-3.88523 -3.95838,-11.03488 -0.46458,-2.71888 -0.75514,-8.05848 l -0.40279,0.0688 z" />
    <path
       inkscape:connector-curvature="0"
       id="path4335"
       style="font-style:normal;font-variant:normal;font-weight:normal;font-stretch:normal;font-size:medium;line-height:125%;font-family:Sriracha;-inkscape-font-specification:Sriracha;text-align:center;letter-spacing:0px;word-spacing:0px;text-anchor:middle;fill:#000000;fill-opacity:1;stroke:none;stroke-width:1px;stroke-linecap:butt;stroke-linejoin:miter;stroke-opacity:1"
       d="m -74.400796,158.83537 q -0.53341,-3.12167 0.966913,-5.86538 1.601047,-2.76093 5.125521,-3.36316 3.725873,-0.63665 6.840484,1.21485 3.215335,1.83429 3.714332,4.75457 0.498996,2.92028 -1.95924,5.51675 -2.458237,2.59648 -6.184085,3.23313 -3.625198,0.61944 -5.848206,-0.86621 -2.139516,-1.60357 -2.655719,-4.62455 z m 13.619048,16.01706 q -1.620397,22.663 -2.564437,34.12101 -0.127488,1.68001 0.199441,3.5933 l 0.582489,2.80237 q 0.292515,1.71189 -0.694729,2.60606 -0.886545,0.87696 -4.293114,1.56269 -3.32305,0.56782 -5.15541,0.15544 -1.83231,-0.41238 -2.228066,-2.72846 -0.189274,-1.1077 0.504288,-12.21199 0.794237,-11.12149 2.299852,-28.99746 l -2.832287,-2.62522 q -0.353718,-0.25048 -0.422545,-0.65328 -0.172068,-1.00699 1.940075,-1.98974 2.094937,-1.08344 6.022233,-1.75451 3.42375,-0.58503 4.674179,1.2741 1.333921,1.74122 1.968056,4.84568 z" />
    <path
       inkscape:connector-curvature="0"
       id="path4337"
       style="font-style:normal;font-variant:normal;font-weight:normal;font-stretch:normal;font-size:medium;line-height:125%;font-family:Sriracha;-inkscape-font-specification:Sriracha;text-align:center;letter-spacing:0px;word-spacing:0px;text-anchor:middle;fill:#000000;fill-opacity:1;stroke:none;stroke-width:1px;stroke-linecap:butt;stroke-linejoin:miter;stroke-opacity:1"
       d="m -8.2429482,207.33074 q -0.3951727,1.93303 -2.9101128,2.98461 -2.397034,1.13506 -4.31032,1.46199 -1.812587,0.30972 -2.571643,-0.49333 -0.641151,-0.71956 -1.336463,-2.36262 -0.695312,-1.64306 -0.899252,-2.23005 -3.831072,3.66017 -8.104437,5.94496 -4.155459,2.36829 -7.176437,2.88449 -2.61818,0.44738 -6.233771,-0.69668 -3.514892,-1.16127 -6.329971,-3.6858 -2.81508,-2.52452 -3.417317,-6.04899 -0.96358,-5.63916 1.265302,-15.03665 2.228883,-9.39748 7.857293,-17.09579 5.729109,-7.71551 14.792042,-9.26412 7.955242,-1.35934 14.628765,0.0913 6.6735239,1.45066 7.4650358,6.08283 -1.9248266,5.71815 -3.458397,16.7587 -1.4328708,11.02334 -0.572532,16.0583 0.5678238,3.32307 1.312215,4.64683 z M -21.51471,198.19819 q 0.0485,-4.56842 0.929374,-10.93731 0.964372,-6.48679 3.237834,-13.19727 -0.847632,-1.92795 -3.669753,-2.06756 -2.738628,-0.25752 -4.853313,0.10382 -3.725872,0.63665 -7.195601,6.41151 -3.469729,5.77485 -5.438552,13.05511 -1.88533,7.16236 -1.179852,11.29103 0.344135,2.01398 1.606688,2.731 1.245346,0.61632 2.957234,0.32381 2.316083,-0.39576 7.05853,-2.96799 4.825941,-2.69013 6.547411,-4.74615 z" />
    <g
       id="g4310"
       style="fill:#000000"
       transform="matrix(2.5174815,-0.43016953,0.43016953,2.5174815,-1943.7862,103.6006)">
      <path
         d="m 706.55,180.64218 q 1.48,0.28 1.92,0.48 0.48,0.16 0.64,0.52 -0.84,3.24 -2.2,9.2 -1.36,5.92 -1.84,7.96 -0.88,4.08 -1.64,7.24 -0.56,2.2 -1.76,2.2 -3.68,0 -3.68,-1.72 0,0.68 2.08,-9.04 l 0.72,-3.44 -7.96,12.32 q -0.64,0.8 -1.88,0.8 -1.04,0 -1.96,-0.52 -0.88,-0.52 -0.76,-1.04 l -2.2,-12.92 -3.28,13.24 q -0.28,1.16 -0.88,1.56 -0.56,0.4 -2.16,0.4 -1.24,0 -1.84,-0.44 -0.56,-0.4 -0.56,-1.4 0,-0.44 0.12,-0.84 l 5.48,-21.64 q 0.44,-1.76 0.92,-2.32 0.52,-0.6 1.84,-0.6 1.08,0 1.92,0.24 0.84,0.24 0.88,0.72 l 0,0.08 3.2,19.88 q 1.72,-2.76 5.64,-9.12 3.96,-6.36 6.2,-9.92 0.4,-1 0.88,-1.28 0.52,-0.32 1.16,-0.44 0.68,-0.12 1,-0.16 z m -8.56,25.88 0,0 z"
         style="font-style:normal;font-variant:normal;font-weight:normal;font-stretch:normal;font-size:medium;line-height:125%;font-family:Sriracha;-inkscape-font-specification:Sriracha;text-align:center;letter-spacing:0px;word-spacing:0px;text-anchor:middle;fill:#000000;fill-opacity:1;stroke:none;stroke-width:1px;stroke-linecap:butt;stroke-linejoin:miter;stroke-opacity:1"
         id="path4215"
         inkscape:connector-curvature="0" />
      <path
         d="m 725.48625,205.28218 q 0.08,1.04 0.28,1.88 -0.08,0.24 -0.72,0.48 -0.6,0.24 -1.04,0.24 -1.44,0 -2.08,-0.44 -0.6,-0.4 -0.6,-1.24 0,-0.8 0.16,-1.6 -0.88,1.2 -2.6,2 -1.68,0.76 -2.72,0.76 -2.68,0 -4.48,-1.56 -1.76,-1.56 -1.76,-5 0,-3.24 1.52,-6.08 1.56,-2.88 4.28,-4.6 2.72,-1.76 6.04,-1.76 0.64,0 1.68,0.36 1.04,0.32 2.08,1.16 1.08,0.8 1.8,2.08 0.32,0 0.76,0.32 0.44,0.32 0.44,0.64 0,0.36 -0.12,0.72 l -2.92,11.64 z m -1.8,-11.2 q -0.24,-0.88 -0.96,-1.48 -0.68,-0.6 -1.24,-0.6 -1.84,0 -3.48,1.32 -1.6,1.28 -2.6,3.2 -1,1.92 -1,3.64 0,1.68 0.4,2.76 0.4,1.08 1.56,1.08 1,0 2.28,-0.6 1.32,-0.6 2.32,-1.6 1.04,-1.04 1.36,-2.16 l 1.36,-5.56 z"
         style="font-style:normal;font-variant:normal;font-weight:normal;font-stretch:normal;font-size:medium;line-height:125%;font-family:Sriracha;-inkscape-font-specification:Sriracha;text-align:center;letter-spacing:0px;word-spacing:0px;text-anchor:middle;fill:#000000;fill-opacity:1;stroke:none;stroke-width:1px;stroke-linecap:butt;stroke-linejoin:miter;stroke-opacity:1"
         id="path4217"
         inkscape:connector-curvature="0" />
      <path
         d="m 739.92438,185.60218 q -4.52001,19 -5.32001,21.72 -0.08,0.24 -0.84,0.6 -0.72,0.4 -1,0.4 -1.12,0 -2.16,-0.56 -1.03999,-0.56 -1.12,-1.8 0.04,-0.08 0.4,-0.84 0.36,-0.76 0.72,-2.16 0.92,-3.44 2.08001,-8.16 1.19999,-4.72 1.59999,-6.32 l 1.88,-7.64 q -0.04,-0.32 -0.04,-3.32 0.12,-0.52 0.88,-0.84 0.80001,-0.32 1.44001,-0.32 1,0 2.03999,0.68 1.08001,0.68 1.12,1.64 l -1.67999,6.92 z"
         style="font-style:normal;font-variant:normal;font-weight:normal;font-stretch:normal;font-size:medium;line-height:125%;font-family:Sriracha;-inkscape-font-specification:Sriracha;text-align:center;letter-spacing:0px;word-spacing:0px;text-anchor:middle;fill:#000000;fill-opacity:1;stroke:none;stroke-width:1px;stroke-linecap:butt;stroke-linejoin:miter;stroke-opacity:1"
         id="path4219"
         inkscape:connector-curvature="0" />
      <path
         d="m 749.37063,207.76218 q -3.52,0 -5.48001,-2.4 -1.96,-2.4 -1.96,-6.12 0,-3.12 1.32001,-5.72 1.36,-2.6 3.75999,-4.08 2.44,-1.52 5.56,-1.52 3.48,0 4.68001,0.6 0.36,0.16 0.63999,0.52 0.28,0.32 0.28,0.64 0,0.4 -0.19999,0.84 -0.16001,0.44 -0.52001,0.68 0.92001,0.08 1.56,0.92 0.64,0.8 0.96001,1.88 0.31999,1.08 0.31999,1.88 0,2.84 -1.4,5.6 -1.36,2.76 -3.84,4.52 -2.48,1.76 -5.67999,1.76 z m 0.6,-3.32 q 1.28,0 2.59999,-1.24 1.36,-1.28 2.24,-3.36 0.88,-2.08 0.88,-4.36 0,-0.44 -0.31999,-0.8 -0.28,-0.36 -0.80001,-0.76 -0.28,-0.2 -0.52,-0.4 -0.19999,-0.24 -0.19999,-0.44 0,-0.16 0.08,-0.44 0.12,-0.28 0.12,-0.4 0,-0.6 -1.48,-0.6 -1.64,0 -3.04,1.32 -1.36,1.32 -2.15999,3.36 -0.76,2.04 -0.76,4 0,1.16 0.51999,2.12 0.52,0.92 1.28,1.48 0.80001,0.52 1.56001,0.52 z"
         style="font-style:normal;font-variant:normal;font-weight:normal;font-stretch:normal;font-size:medium;line-height:125%;font-family:Sriracha;-inkscape-font-specification:Sriracha;text-align:center;letter-spacing:0px;word-spacing:0px;text-anchor:middle;fill:#000000;fill-opacity:1;stroke:none;stroke-width:1px;stroke-linecap:butt;stroke-linejoin:miter;stroke-opacity:1"
         id="path4221"
         inkscape:connector-curvature="0" />
      <path
         d="m 766.16313,187.96218 q 1.95999,-1 3.12,-1 1.36,0 1.52,1.4 l -1.32001,4.92 q 0.84,-1.16 2.48,-2.28 1.64,-1.12 3.28,-1.84 1.68001,-0.72 2.68001,-0.72 2.12,0 3.07999,0.8 0.96,0.76 0.96,2.44 -0.39999,2.24 -1.2,5.4 -0.8,3.12 -1,3.96 -0.88,3.28 -1.23999,4.92 -0.24,1 -0.48,1.4 -0.20001,0.36 -0.76,0.52 -0.52001,0.16 -1.84001,0.16 -0.72,0 -1.36,-0.24 -0.6,-0.24 -0.6,-0.8 0.12,-1.32 0.80001,-4.04 0.71999,-2.76 1.91999,-7.12 0.8,-2.72 0.8,-2.96 0,-0.56 -0.64,-0.56 -0.92,0 -2.76,1.28 -1.84,1.24 -3.79999,4.2 -1.96001,2.92 -3.08001,7.64 -0.08,0.24 -0.19999,0.88 -0.12,0.64 -0.64001,0.92 -0.52,0.24 -1.68,0.24 -1.32,0 -1.96,-0.28 -0.59999,-0.28 -0.59999,-1.2 l 0.43999,-1.72 q 2.36,-9.24 4.08001,-16.32 z"
         style="font-style:normal;font-variant:normal;font-weight:normal;font-stretch:normal;font-size:medium;line-height:125%;font-family:Sriracha;-inkscape-font-specification:Sriracha;text-align:center;letter-spacing:0px;word-spacing:0px;text-anchor:middle;fill:#000000;fill-opacity:1;stroke:none;stroke-width:1px;stroke-linecap:butt;stroke-linejoin:miter;stroke-opacity:1"
         id="path4223"
         inkscape:connector-curvature="0" />
    </g>
  </g>
</svg>
